<?xml version="1.0" encoding="utf-8"?>
<!-- Generator: Adobe Illustrator 18.1.1, SVG Export Plug-In . SVG Version: 6.00 Build 0)  -->
<svg version="1.1" id="Layer_1" xmlns="http://www.w3.org/2000/svg" xmlns:xlink="http://www.w3.org/1999/xlink" x="0px" y="0px"
	 viewBox="0 0 502 309" enable-background="new 0 0 502 309" xml:space="preserve">
<g>
	<g>
		<path fill="#D3DA27" d="M46.1,81.5V0.1c-6.8-0.1-13.6,0.7-18.4,2c-10,2.8-21.3,11.1-25.3,19c0,0,1.5-0.3,3.5,0
			c2,0.3,4.4,1.4,4.4,1.4s-5.4,4-7.3,9.2c-2.8,7.5-3.2,14.5-2.4,13.2c1.6-2.7,9.1-4.5,9.1-4.5S5,47.1,3.6,50.9
			c-2.3,5.9-4.1,17.1-3.6,17c0,0,2.8-3.1,6.9-5.3c2.6-1.4,4-2.3,4-2.3c-0.1-0.4-3.7,6.1-5.1,11.5c-1.3,4.9-1.6,15.9-1.6,15.8
			c-0.3-0.4,3.2-4.2,6.5-6c2.7-1.4,5.2-1.4,5.2-1.4l-0.2,10.2c0,0-7.5,0.5-8.2,4.8c-0.8,4.8,2.2,5.4,7.6,5.8
			c5.4,0.3,10.5,1.2,14.8-1.9c4.4-3.2,2.8-14.2,3.2-15C33.3,83.2,38,81.5,46.1,81.5z"/>
		<path fill="#D3DA27" d="M41.9,81.5V0.1c6.8-0.1,13.6,0.7,18.4,2c10,2.8,21.3,11.1,25.3,19c0,0-1.5-0.3-3.5,0
			c-2,0.3-4.4,1.4-4.4,1.4s5.4,4,7.3,9.2c2.8,7.5,3.2,14.5,2.4,13.2c-1.6-2.7-9.1-4.5-9.1-4.5s4.4,6.7,5.9,10.4
			c2.3,5.9,4.1,17.1,3.6,17c0,0-2.8-3.1-6.9-5.3c-2.6-1.4-4-2.3-4-2.3c0.1-0.4,3.7,6.1,5.1,11.5c1.3,4.9,1.6,15.9,1.6,15.8
			c0.3-0.4-3.2-4.2-6.5-6c-2.7-1.4-5.2-1.4-5.2-1.4l0.2,10.2c0,0,7.5,0.5,8.2,4.8c0.8,4.8-2.2,5.4-7.6,5.8
			c-5.4,0.3-10.5,1.2-14.8-1.9c-4.4-3.2-2.8-14.2-3.2-15C54.7,83.2,50,81.5,41.9,81.5z"/>
	</g>
	<path fill="#FFFFFF" d="M64.1,31.6C63.8,31.3,55,41,44.2,41s-19.3-9.4-19.3-9.4s8.8-10.8,19.6-10.8S64.1,31.6,64.1,31.6z"/>
	<ellipse fill="#898633" cx="44.6" cy="31" rx="8.1" ry="8.5"/>
</g>
<g>
	<g>
		<path fill="#D3DA27" d="M46.1,185.5v-81.4c-6.8-0.1-13.6,0.7-18.4,2c-10,2.8-21.3,11.1-25.3,19c0,0,1.5-0.3,3.5,0
			c2,0.3,4.4,1.4,4.4,1.4s-5.4,4-7.3,9.2c-2.8,7.5-3.2,14.5-2.4,13.2c1.6-2.7,9.1-4.5,9.1-4.5s-4.4,6.7-5.9,10.4
			c-2.3,5.9-4.1,17.1-3.6,17c0,0,2.8-3.1,6.9-5.3c2.6-1.4,4-2.3,4-2.3c-0.1-0.4-3.7,6.1-5.1,11.5c-1.3,4.9-1.6,15.9-1.6,15.8
			c-0.3-0.4,3.2-4.2,6.5-6c2.7-1.4,5.2-1.4,5.2-1.4l-0.2,10.2c0,0-7.5,0.5-8.2,4.8c-0.8,4.8,2.2,5.4,7.6,5.8
			c5.4,0.3,10.5,1.2,14.8-1.9c4.4-3.2,2.8-14.2,3.2-15C33.3,187.2,38,185.5,46.1,185.5z"/>
		<path fill="#D3DA27" d="M41.9,185.5v-81.4c6.8-0.1,13.6,0.7,18.4,2c10,2.8,21.3,11.1,25.3,19c0,0-1.5-0.3-3.5,0
			c-2,0.3-4.4,1.4-4.4,1.4s5.4,4,7.3,9.2c2.8,7.5,3.2,14.5,2.4,13.2c-1.6-2.7-9.1-4.5-9.1-4.5s4.4,6.7,5.9,10.4
			c2.3,5.9,4.1,17.1,3.6,17c0,0-2.8-3.1-6.9-5.3c-2.6-1.4-4-2.3-4-2.3c0.1-0.4,3.7,6.1,5.1,11.5c1.3,4.9,1.6,15.9,1.6,15.8
			c0.3-0.4-3.2-4.2-6.5-6c-2.7-1.4-5.2-1.4-5.2-1.4l0.2,10.2c0,0,7.5,0.5,8.2,4.8c0.8,4.8-2.2,5.4-7.6,5.8
			c-5.4,0.3-10.5,1.2-14.8-1.9c-4.4-3.2-2.8-14.2-3.2-15C54.7,187.2,50,185.5,41.9,185.5z"/>
	</g>
	<path fill="#FFFFFF" d="M64.1,135.6c-0.3-0.3-9.1,9.4-19.9,9.4s-19.3-9.4-19.3-9.4s8.8-10.8,19.6-10.8S64.1,135.6,64.1,135.6z"/>
	<ellipse fill="#898633" cx="44.6" cy="135" rx="8.1" ry="8.5"/>
</g>
<g>
	<g>
		<path d="M157.8,13.8c-10.6,6.6-10.6,22.3-11.6,33.3c-0.8,8.6-1.2,17.3-0.6,25.9c0.5,6.6,1.1,13.9,4.8,19.6
			c5.4,8.5,18.1,9.4,21.2-1.3c2.1-7.2,1.7-15.7,2-23.2c0.3-8.7,0.1-17.4-0.4-26.1c-0.4-6.4-2.7-35.3-15.5-27.8
			c-1.8,1.1-0.2,3.9,1.7,2.9c4.9-2.8,7.9,7,8.6,9.7c0.9,3.2,1.3,6.6,1.6,10c0.6,6.9,0.8,13.8,0.9,20.8c0,7.4-0.2,14.8-0.7,22.2
			c-0.5,6.8-1.5,20.5-11.9,15.5c-6.8-3.3-7.9-12.7-8.6-19.3c-0.7-7-0.7-14.1-0.3-21.1c0.4-7.2,1.1-14.4,2.2-21.5
			c1-6.2,2.6-13.1,8.3-16.6C161.3,15.5,159.6,12.6,157.8,13.8L157.8,13.8z"/>
	</g>
</g>
<g>
	<g>
		<path d="M183.1,16c-3,27.2,1.5,54.4,0.1,81.7c-0.1,2.1,3.1,2.1,3.2,0c1.3-27.2-3.1-54.5-0.1-81.7C186.6,14,183.3,14,183.1,16
			L183.1,16z"/>
	</g>
</g>
<g>
	<g>
		<path d="M183.5,15.8c3.3,14.8,6.5,29.7,10.1,44.5c1.8,7.2,3.8,14.3,6.2,21.3c1.9,5.9,3.3,12.9,7.1,18c1.2,1.6,4,0,2.8-1.6
			c-3.9-5.2-5.4-12.9-7.4-19c-2.3-7-4.3-14.1-6-21.3c-3.4-14.2-6.5-28.4-9.7-42.6C186.2,12.9,183,13.8,183.5,15.8L183.5,15.8z"/>
	</g>
</g>
<g>
	<g>
		<path d="M205.9,15.2c-0.7,27.5-1.9,55.5,0.4,82.9c0.2,2.1,3.4,2.1,3.2,0c-2.3-27.4-1.1-55.4-0.4-82.9
			C209.1,13.1,205.9,13.1,205.9,15.2L205.9,15.2z"/>
	</g>
</g>
<g>
	<g>
		<path d="M219,16c0.7,14.3,1.2,28.5,1.2,42.8c0,13-1.4,26.4,1.2,39.2c0.4,2,3.5,1.2,3.1-0.9c-2.6-13.1-1-27-1.1-40.3
			c-0.1-13.6-0.5-27.3-1.2-40.9C222.1,13.9,218.9,13.9,219,16L219,16z"/>
	</g>
</g>
<g>
	<g>
		<path d="M221.1,17.8c7.3-0.5,14.7-0.7,22-0.7c2.1,0,2.1-3.2,0-3.2c-7.3,0-14.7,0.3-22,0.7C219.1,14.7,219.1,17.9,221.1,17.8
			L221.1,17.8z"/>
	</g>
</g>
<g>
	<g>
		<path d="M222.1,52.3c5.8-0.1,11.6-0.4,17.5-0.9c2.1-0.2,2.1-3.4,0-3.2c-5.8,0.5-11.6,0.8-17.5,0.9C220,49.1,220,52.4,222.1,52.3
			L222.1,52.3z"/>
	</g>
</g>
<g>
	<g>
		<path d="M249,15.6c-0.4,18.1-0.7,36.3,0.4,54.4c0.6,9.6,0.3,31.8,15.4,30.3c15.5-1.6,12.1-20.4,12-30.8c-0.2-18-0.2-36.1-0.3-54.1
			c0-2.1-3.3-2.1-3.3,0c0.1,14.2,0.2,28.4,0.2,42.6c0,6.9-0.1,13.7,0.5,20.5c0.6,6.8-0.1,16.2-8.3,18.3
			c-10.1,2.5-11.8-10.9-12.4-17.6c-0.6-6.7-1-13.4-1.2-20.2c-0.5-14.5-0.2-29,0.1-43.4C252.3,13.5,249.1,13.5,249,15.6L249,15.6z"/>
	</g>
</g>
<g>
	<g>
		<path d="M285.6,15.7c1.9,13.6,1.4,27.5,1.4,41.2c-0.1,13.6-0.1,27.2-0.2,40.8c0,2.1,3.2,2.1,3.2,0c0.1-14.2,0.1-28.5,0.2-42.7
			c0.1-13.4,0.4-26.8-1.5-40.1C288.5,12.8,285.3,13.6,285.6,15.7L285.6,15.7z"/>
	</g>
</g>
<g>
	<g>
		<path d="M287.2,16.2c6.8,2.3,15,5.3,16.9,13.2c2,8.2-7.9,14.3-14.4,16.5c-2,0.7-1.1,3.8,0.9,3.1c7.8-2.7,18-9.3,17-18.7
			c-1-10.1-11.2-14.4-19.5-17.2C286,12.4,285.2,15.6,287.2,16.2L287.2,16.2z"/>
	</g>
</g>
<g>
	<g>
		<path d="M287.8,48.7c8.3,14.8,12,32.5,17.1,48.6c0.6,2,3.8,1.1,3.1-0.9c-5.2-16.4-9-34.3-17.4-49.4
			C289.6,45.2,286.8,46.9,287.8,48.7L287.8,48.7z"/>
	</g>
</g>
<g>
	<g>
		<path d="M139.2,15.2c-7.1-4.4-15.7-1.2-18.8,6.3c-5.1,12.8-6.8,25.8-6.5,39.5c0.1,6.4,0.7,12.5,2.3,18.7
			c1.2,4.8,2.5,10.9,5.8,14.9c4.8,5.6,18.4,8.3,21.4-0.4c0.7-2-2.4-2.8-3.1-0.9c-2.2,6.5-13.9,2.1-16.4-1.6
			c-2.2-3.1-3.1-7.5-4.1-11.1c-2.3-8.3-2.7-16.5-2.7-25.1c0-9.2,3.4-48.4,20.5-37.7C139.4,19,141,16.2,139.2,15.2L139.2,15.2z"/>
	</g>
</g>
<g>
	<g>
		<path d="M315.5,16.4c0.3,27.1-0.8,54.1-1.2,81.1c0,2.1,3.2,2.1,3.2,0c0.4-27.1,1.4-54.1,1.2-81.1
			C318.7,14.4,315.5,14.4,315.5,16.4L315.5,16.4z"/>
	</g>
</g>
<g>
	<g>
		<path d="M315.6,16.5c2.9,7.2,5.2,14.6,6.8,22.2c1.6,7.4,2.7,14.7,5.7,21.6c0.8,1.9,3.5,0.3,2.7-1.6c-3.1-7.2-4-15-5.7-22.6
			c-1.6-7-3.8-13.8-6.4-20.4C317.9,13.7,314.8,14.5,315.6,16.5L315.6,16.5z"/>
	</g>
</g>
<g>
	<g>
		<path d="M330.9,60.2c3.3-15,5.6-30.1,7-45.4c0.2-1.8-2.9-2.2-3.1-0.4c0,0.3-0.1,0.7-0.1,1c-0.3,2,2.8,2.9,3.1,0.8
			c0-0.3,0.1-0.7,0.1-1c-1-0.1-2.1-0.3-3.1-0.4c-1.4,15-3.7,29.8-6.9,44.5C327.4,61.4,330.5,62.2,330.9,60.2L330.9,60.2z"/>
	</g>
</g>
<g>
	<g>
		<path d="M334.6,15.6c1.5,6.9,1.6,14.2,2.1,21.2c0.5,6.2,1,12.5,1.4,18.7c1,13.8,1.4,27.6,1.4,41.4c0,1.8,2.6,2.2,3.1,0.4
			c0.1-0.3,0.2-0.6,0.2-0.8c0.5-2-2.5-2.8-3.1-0.8c-0.1,0.3-0.2,0.6-0.2,0.8c1,0.1,2.1,0.3,3.1,0.4c0-14.4-0.5-28.7-1.5-43
			c-0.9-12.9-0.7-26.6-3.5-39.1C337.2,12.7,334.1,13.6,334.6,15.6L334.6,15.6z"/>
	</g>
</g>
<g>
	<g>
		<path d="M348,16.4c0.5,26.6,0.8,53.2,0.8,79.8c0,2,3.2,2,3.2,0c-0.1-26.6-0.3-53.2-0.8-79.8C351.1,14.4,348,14.4,348,16.4
			L348,16.4z"/>
	</g>
</g>
<g>
	<g>
		<path d="M352.1,18.2c7.7-0.6,15.4-0.9,23.1-0.9c2,0,2-3.1,0-3.1c-7.7,0-15.4,0.3-23.1,0.9C350.1,15.2,350.1,18.3,352.1,18.2
			L352.1,18.2z"/>
	</g>
</g>
<g>
	<g>
		<path d="M350.4,53.5c6.3,0,12.7-0.2,19-0.6c2-0.1,2-3.2,0-3.1c-6.3,0.4-12.6,0.6-19,0.6C348.4,50.4,348.4,53.5,350.4,53.5
			L350.4,53.5z"/>
	</g>
</g>
<g>
	<g>
		<path d="M350.6,98.4c8,0,15.9-0.1,23.9-0.5c0-1,0-2.1,0-3.1c-0.4,0-0.8,0.1-1.2,0.1c-2,0.2-2,3.3,0,3.1c0.4,0,0.8-0.1,1.2-0.1
			c2-0.2,2-3.2,0-3.1c-8,0.3-15.9,0.5-23.9,0.5C348.6,95.3,348.6,98.4,350.6,98.4L350.6,98.4z"/>
	</g>
</g>
<g>
	<g>
		<path d="M405.4,14.7c0.1,17.1-0.5,34.3,1.6,51.2c0.2,2,3.4,2,3.1,0c-2.1-17-1.6-34.2-1.6-51.2C408.5,12.7,405.4,12.7,405.4,14.7
			L405.4,14.7z"/>
	</g>
</g>
<g>
	<g>
		<path d="M407.6,43.9c8-1.5,20.9,0.3,20,11c-0.8,9.1-10.1,13.2-18,10.4c-1.9-0.7-2.7,2.3-0.8,3c10.1,3.5,21.6-2.5,22.1-13.8
			c0.5-12.6-14.2-15.5-24-13.6C404.8,41.3,405.7,44.3,407.6,43.9L407.6,43.9z"/>
	</g>
</g>
<g>
	<g>
		<path d="M437.8,57c6.3,0.4,12.5,0.3,18.8-0.5c2-0.2,2-3.3,0-3.1c-6.3,0.7-12.5,0.9-18.8,0.5C435.8,53.7,435.8,56.9,437.8,57
			L437.8,57z"/>
	</g>
</g>
<g>
	<g>
		<path d="M458.1,54.8c0.9-5.9-2.7-15.9-9.5-17.2c-7.6-1.4-11.3,7-12.9,12.9c-1.8,6.6-1.6,15,5.4,18.5c4.5,2.2,14.4,3.4,16.8-2.2
			c0.8-1.8-1.9-3.4-2.7-1.6c-1.4,3.4-9.1,2.4-11.6,1.5c-5.8-2.2-6.5-8.5-5.3-13.7c0.8-3.4,1.9-7.8,4.6-10.2c7-6.2,13,5.5,12.1,11.2
			C454.8,55.9,457.8,56.8,458.1,54.8L458.1,54.8z"/>
	</g>
</g>
<g>
	<g>
		<path d="M463.6,14.8c0.2,7.8,0.4,15.6,0.6,23.4c0.2,6.5-0.1,13.3,0.9,19.7c0.7,4.3,2.5,9.8,7,11.5c3.3,1.2,6.2-0.4,8-3.1
			c1.1-1.7-1.6-3.2-2.7-1.6c-6,8.9-9.5-8.4-9.7-11.4c-0.2-4-0.2-8.1-0.4-12.2c-0.2-8.8-0.5-17.6-0.7-26.3
			C466.6,12.8,463.5,12.8,463.6,14.8L463.6,14.8z"/>
	</g>
</g>
<g>
	<g>
		<path d="M457,28.6c5.5,0,10.9-0.3,16.4-0.9c2-0.2,2-3.3,0-3.1c-5.4,0.6-10.9,0.9-16.4,0.9C455,25.5,455,28.6,457,28.6L457,28.6z"
			/>
	</g>
</g>
<g>
	<g>
		<path d="M485.4,42.7c2.3-2.3,5.3-5.1,8.7-5c5.6,0.2,5.4,6.2,5.3,10.3c-0.1,6.4-0.2,12.8-0.3,19.2c0,2.1,3.2,2.1,3.2,0
			c0.1-6.1,0.2-12.2,0.3-18.2c0.1-3.7,0.6-8.2-1.8-11.3c-5-6.6-13.2-1.4-17.7,2.8C481.6,41.8,483.9,44.1,485.4,42.7L485.4,42.7z"/>
	</g>
</g>
<g>
	<g>
		<path d="M500.9,51.2c-4.1-1.9-8.7-3.3-13.1-1.4c-3.5,1.5-6.2,4.8-6.2,8.8c-0.1,10,11.5,14.8,19.4,10.3c1.8-1,0.2-3.8-1.6-2.8
			c-5.8,3.3-14.6,0.1-14.5-7.4c0.1-7.9,9.4-7.1,14.4-4.7C501.1,54.8,502.8,52,500.9,51.2L500.9,51.2z"/>
	</g>
</g>
<g>
	<g>
		<path fill="#D3DA27" d="M46.1,288.8v-81.4c-6.8-0.1-13.6,0.7-18.4,2c-10,2.8-21.3,11.1-25.3,19c0,0,1.5-0.3,3.5,0
			c2,0.3,4.4,1.4,4.4,1.4s-5.4,4-7.3,9.2c-2.8,7.5-3.2,14.5-2.4,13.2c1.6-2.7,9.1-4.5,9.1-4.5s-4.4,6.7-5.9,10.4
			c-2.3,5.9-4.1,17.1-3.6,17c0,0,2.8-3.1,6.9-5.3c2.6-1.4,4-2.3,4-2.3c-0.1-0.4-3.7,6.1-5.1,11.5C4.4,284,4.1,295,4.1,294.9
			c-0.3-0.4,3.2-4.2,6.5-6c2.7-1.4,5.2-1.4,5.2-1.4l-0.2,10.2c0,0-7.5,0.5-8.2,4.8c-0.8,4.8,2.2,5.4,7.6,5.8
			c5.4,0.3,10.5,1.2,14.8-1.9c4.4-3.2,2.8-14.2,3.2-15C33.3,290.6,38,288.9,46.1,288.8z"/>
		<path fill="#D3DA27" d="M41.9,288.8v-81.4c6.8-0.1,13.6,0.7,18.4,2c10,2.8,21.3,11.1,25.3,19c0,0-1.5-0.3-3.5,0
			c-2,0.3-4.4,1.4-4.4,1.4s5.4,4,7.3,9.2c2.8,7.5,3.2,14.5,2.4,13.2c-1.6-2.7-9.1-4.5-9.1-4.5s4.4,6.7,5.9,10.4
			c2.3,5.9,4.1,17.1,3.6,17c0,0-2.8-3.1-6.9-5.3c-2.6-1.4-4-2.3-4-2.3c0.1-0.4,3.7,6.1,5.1,11.5c1.3,4.9,1.6,15.9,1.6,15.8
			c0.3-0.4-3.2-4.2-6.5-6c-2.7-1.4-5.2-1.4-5.2-1.4l0.2,10.2c0,0,7.5,0.5,8.2,4.8c0.8,4.8-2.2,5.4-7.6,5.8
			c-5.4,0.3-10.5,1.2-14.8-1.9c-4.4-3.2-2.8-14.2-3.2-15C54.7,290.6,50,288.9,41.9,288.8z"/>
	</g>
	<path fill="#FFFFFF" d="M64.1,238.9c-0.3-0.3-9.1,9.4-19.9,9.4s-19.3-9.4-19.3-9.4s8.8-10.8,19.6-10.8S64.1,238.9,64.1,238.9z"/>
	<ellipse fill="#898633" cx="44.6" cy="238.3" rx="8.1" ry="8.5"/>
</g>
<g>
	<g>
		<path fill="#FFFFFF" d="M157.8,221.2c-10.6,6.6-10.5,22.3-11.6,33.3c-0.8,8.6-1.2,17.3-0.6,25.9c0.5,6.6,1.1,13.9,4.8,19.6
			c5.3,8.4,18,9.4,21.1-1.3c2.1-7.2,1.7-15.7,2-23.2c0.3-8.7,0.1-17.4-0.4-26.1c-0.4-6.3-2.7-35.2-15.4-27.8c-1.8,1-0.2,3.8,1.6,2.8
			c7.4-4.3,10,16.4,10.2,19.7c0.6,6.9,0.8,13.8,0.9,20.8c0,7.4-0.2,14.8-0.7,22.2c-0.5,6.8-1.5,20.6-12,15.5
			c-6.8-3.3-7.9-12.7-8.6-19.3c-0.7-7-0.7-14.1-0.3-21.1c0.4-7.2,1.1-14.4,2.2-21.5c1-6.3,2.6-13.1,8.4-16.7
			C161.2,222.8,159.6,220.1,157.8,221.2L157.8,221.2z"/>
	</g>
</g>
<g>
	<g>
		<path fill="#FFFFFF" d="M183.1,223.3c-3,27.2,1.5,54.4,0.1,81.7c-0.1,2.1,3.1,2.1,3.2,0c1.3-27.2-3.1-54.5-0.1-81.7
			C186.5,221.3,183.3,221.3,183.1,223.3L183.1,223.3z"/>
	</g>
</g>
<g>
	<g>
		<path fill="#FFFFFF" d="M183.5,223.1c3.3,14.8,6.5,29.7,10.1,44.5c1.8,7.2,3.8,14.3,6.2,21.3c1.9,5.9,3.3,12.9,7.1,17.9
			c1.2,1.6,4,0,2.8-1.6c-3.9-5.2-5.4-12.9-7.4-19.1c-2.3-7-4.3-14.1-6-21.3c-3.4-14.2-6.5-28.4-9.7-42.6
			C186.2,220.3,183.1,221.1,183.5,223.1L183.5,223.1z"/>
	</g>
</g>
<g>
	<g>
		<path fill="#FFFFFF" d="M205.9,222.5c-0.7,27.5-1.9,55.5,0.4,82.9c0.2,2,3.4,2.1,3.2,0c-2.3-27.4-1.1-55.4-0.4-82.9
			C209.1,220.5,205.9,220.5,205.9,222.5L205.9,222.5z"/>
	</g>
</g>
<g>
	<g>
		<path fill="#FFFFFF" d="M219,223.3c0.7,14.3,1.2,28.5,1.2,42.8c0,13-1.4,26.4,1.2,39.2c0.4,2,3.5,1.2,3.1-0.9
			c-2.6-13.1-1-27-1.1-40.3c-0.1-13.6-0.5-27.3-1.2-40.9C222.1,221.3,218.9,221.3,219,223.3L219,223.3z"/>
	</g>
</g>
<g>
	<g>
		<path fill="#FFFFFF" d="M221.1,225.1c7.3-0.5,14.7-0.7,22-0.7c2.1,0,2.1-3.2,0-3.2c-7.3,0-14.7,0.3-22,0.7
			C219.1,222,219.1,225.2,221.1,225.1L221.1,225.1z"/>
	</g>
</g>
<g>
	<g>
		<path fill="#FFFFFF" d="M222.1,259.6c5.8-0.1,11.6-0.4,17.5-0.9c2-0.2,2.1-3.4,0-3.2c-5.8,0.5-11.6,0.8-17.5,0.9
			C220.1,256.5,220,259.7,222.1,259.6L222.1,259.6z"/>
	</g>
</g>
<g>
	<g>
		<path fill="#FFFFFF" d="M249.1,222.9c-0.4,18.1-0.7,36.3,0.4,54.4c0.6,9.6,0.3,31.7,15.3,30.2c15.5-1.6,12.1-20.4,12-30.8
			c-0.2-18-0.2-36.1-0.3-54.1c0-2.1-3.2-2.1-3.2,0c0.1,14.2,0.2,28.4,0.2,42.6c0,6.9-0.1,13.7,0.5,20.5c0.6,6.8-0.1,16.2-8.3,18.3
			c-10.2,2.6-11.8-10.9-12.4-17.7c-0.6-6.7-1-13.4-1.2-20.2c-0.5-14.5-0.2-29,0.1-43.4C252.3,220.8,249.1,220.8,249.1,222.9
			L249.1,222.9z"/>
	</g>
</g>
<g>
	<g>
		<path fill="#FFFFFF" d="M285.6,223c1.9,13.6,1.4,27.5,1.4,41.2c-0.1,13.6-0.1,27.2-0.2,40.8c0,2.1,3.2,2.1,3.2,0
			c0.1-14.2,0.1-28.5,0.2-42.7c0.1-13.4,0.4-26.8-1.5-40.1C288.5,220.1,285.4,221,285.6,223L285.6,223z"/>
	</g>
</g>
<g>
	<g>
		<path fill="#FFFFFF" d="M287.2,223.6c6.8,2.3,15.1,5.3,17,13.2c2,8.2-7.9,14.3-14.4,16.6c-1.9,0.7-1.1,3.8,0.9,3.1
			c7.8-2.7,17.9-9.3,17-18.7c-1-10.1-11.2-14.3-19.5-17.2C286.1,219.8,285.2,222.9,287.2,223.6L287.2,223.6z"/>
	</g>
</g>
<g>
	<g>
		<path fill="#FFFFFF" d="M287.8,256c8.3,14.8,12,32.5,17.1,48.6c0.6,2,3.7,1.1,3.1-0.9c-5.2-16.4-9-34.3-17.4-49.4
			C289.6,252.6,286.8,254.2,287.8,256L287.8,256z"/>
	</g>
</g>
<g>
	<g>
		<path fill="#FFFFFF" d="M139.2,222.5c-7.1-4.4-15.7-1.2-18.8,6.3c-5.1,12.8-6.8,25.8-6.5,39.5c0.1,6.4,0.7,12.5,2.3,18.7
			c1.2,4.8,2.5,10.9,5.8,14.9c4.8,5.6,18.4,8.3,21.4-0.4c0.7-2-2.4-2.8-3.1-0.9c-2.2,6.5-13.9,2.1-16.4-1.6
			c-2.2-3.1-3.1-7.5-4.1-11.1c-2.3-8.3-2.7-16.5-2.7-25.1c0-9.2,3.4-48.4,20.5-37.7C139.4,226.4,141,223.6,139.2,222.5L139.2,222.5z
			"/>
	</g>
</g>
<g>
	<g>
		<path fill="#FFFFFF" d="M315.5,223.8c0.3,27.1-0.8,54.1-1.2,81.1c0,2.1,3.2,2.1,3.2,0c0.4-27.1,1.4-54.1,1.2-81.1
			C318.7,221.7,315.5,221.7,315.5,223.8L315.5,223.8z"/>
	</g>
</g>
<g>
	<g>
		<path fill="#FFFFFF" d="M315.6,223.8c2.9,7.2,5.2,14.6,6.8,22.2c1.6,7.4,2.7,14.7,5.7,21.6c0.8,1.9,3.6,0.3,2.8-1.6
			c-3.1-7.2-4-15-5.7-22.6c-1.6-7-3.8-13.8-6.4-20.4C317.9,221,314.8,221.9,315.6,223.8L315.6,223.8z"/>
	</g>
</g>
<g>
	<g>
		<path fill="#FFFFFF" d="M330.9,267.5c3.3-15,5.6-30.1,7-45.4c0.2-1.8-2.9-2.2-3.1-0.4c0,0.3-0.1,0.7-0.1,1c-0.3,2,2.8,2.9,3.1,0.9
			c0-0.3,0.1-0.7,0.1-1c-1-0.1-2.1-0.3-3.1-0.4c-1.4,15-3.7,29.8-6.9,44.5C327.4,268.7,330.5,269.6,330.9,267.5L330.9,267.5z"/>
	</g>
</g>
<g>
	<g>
		<path fill="#FFFFFF" d="M334.6,222.9c1.5,6.9,1.6,14.2,2.1,21.2c0.5,6.2,1,12.5,1.4,18.7c1,13.8,1.4,27.6,1.4,41.4
			c0,1.8,2.7,2.2,3.1,0.4c0.1-0.3,0.2-0.6,0.2-0.8c0.6-2-2.5-2.8-3.1-0.9c-0.1,0.3-0.2,0.6-0.2,0.8c1,0.1,2.1,0.3,3.1,0.4
			c0-14.4-0.5-28.7-1.5-43c-0.9-12.9-0.7-26.6-3.5-39.1C337.2,220.1,334.1,220.9,334.6,222.9L334.6,222.9z"/>
	</g>
</g>
<g>
	<g>
		<path fill="#FFFFFF" d="M348,223.7c0.5,26.6,0.8,53.2,0.8,79.8c0,2.1,3.2,2.1,3.2,0c-0.1-26.6-0.3-53.2-0.8-79.8
			C351.1,221.7,347.9,221.7,348,223.7L348,223.7z"/>
	</g>
</g>
<g>
	<g>
		<path fill="#FFFFFF" d="M352.1,225.5c7.7-0.6,15.4-0.9,23.1-0.9c2.1,0,2.1-3.2,0-3.2c-7.7,0-15.4,0.3-23.1,0.9
			C350,222.5,350,225.7,352.1,225.5L352.1,225.5z"/>
	</g>
</g>
<g>
	<g>
		<path fill="#FFFFFF" d="M350.4,260.8c6.3,0,12.7-0.2,19-0.6c2-0.1,2.1-3.3,0-3.2c-6.3,0.4-12.6,0.6-19,0.6
			C348.3,257.6,348.3,260.8,350.4,260.8L350.4,260.8z"/>
	</g>
</g>
<g>
	<g>
		<path fill="#FFFFFF" d="M350.6,305.8c8,0,15.9-0.1,23.9-0.5c0-1.1,0-2.1,0-3.2c-0.4,0-0.8,0.1-1.2,0.1c-2,0.2-2.1,3.4,0,3.2
			c0.4,0,0.8-0.1,1.2-0.1c2-0.2,2.1-3.3,0-3.2c-8,0.3-15.9,0.5-23.9,0.5C348.6,302.6,348.6,305.8,350.6,305.8L350.6,305.8z"/>
	</g>
</g>
<g>
	<g>
		<path fill="#FFFFFF" d="M405.4,222c0.1,17.1-0.5,34.3,1.6,51.2c0.3,2,3.5,2,3.2,0c-2.1-17-1.6-34.2-1.6-51.2
			C408.6,220,405.4,219.9,405.4,222L405.4,222z"/>
	</g>
</g>
<g>
	<g>
		<path fill="#FFFFFF" d="M407.6,251.3c7.9-1.5,20.9,0.3,20,11c-0.8,9.1-10,13.1-18,10.3c-2-0.7-2.8,2.4-0.9,3.1
			c10.1,3.5,21.7-2.5,22.1-13.9c0.5-12.7-14.2-15.5-24.1-13.6C404.8,248.6,405.6,251.6,407.6,251.3L407.6,251.3z"/>
	</g>
</g>
<g>
	<g>
		<path fill="#FFFFFF" d="M437.8,264.4c6.3,0.4,12.5,0.3,18.8-0.5c2-0.2,2-3.4,0-3.2c-6.3,0.7-12.5,0.9-18.8,0.5
			C435.8,261,435.8,264.2,437.8,264.4L437.8,264.4z"/>
	</g>
</g>
<g>
	<g>
		<path fill="#FFFFFF" d="M458.1,262.1c0.9-6-2.8-16-9.5-17.3c-7.6-1.4-11.3,7-13,12.9c-1.8,6.6-1.6,15.1,5.4,18.6
			c4.5,2.2,14.5,3.4,16.9-2.2c0.8-1.9-2-3.5-2.8-1.6c-1.4,3.3-9.1,2.4-11.6,1.4c-5.8-2.2-6.4-8.4-5.3-13.7c0.8-3.4,1.9-7.8,4.6-10.2
			c7-6.2,12.9,5.5,12.1,11.2C454.7,263.3,457.8,264.2,458.1,262.1L458.1,262.1z"/>
	</g>
</g>
<g>
	<g>
		<path fill="#FFFFFF" d="M463.5,222.1c0.2,7.8,0.4,15.6,0.6,23.4c0.2,6.5-0.1,13.3,0.9,19.7c0.7,4.3,2.5,9.9,7,11.5
			c3.4,1.2,6.2-0.4,8.1-3.1c1.2-1.7-1.6-3.3-2.8-1.6c-4.2,6.2-8-2.3-8.8-5.1c-0.6-2-0.7-4.1-0.8-6.2c-0.2-4-0.2-8.1-0.4-12.2
			c-0.2-8.8-0.5-17.6-0.7-26.3C466.7,220.1,463.5,220,463.5,222.1L463.5,222.1z"/>
	</g>
</g>
<g>
	<g>
		<path fill="#FFFFFF" d="M457,236c5.5,0,10.9-0.3,16.4-0.9c2-0.2,2-3.4,0-3.2c-5.4,0.6-10.9,0.9-16.4,0.9
			C454.9,232.8,454.9,236,457,236L457,236z"/>
	</g>
</g>
<g>
	<g>
		<path fill="#FFFFFF" d="M485.4,250c2.3-2.2,5.3-5.1,8.7-5c5.6,0.2,5.3,6.2,5.3,10.3c-0.1,6.4-0.2,12.8-0.3,19.2
			c0,2.1,3.2,2.1,3.2,0c0.1-6.1,0.2-12.2,0.3-18.2c0.1-3.7,0.6-8.2-1.8-11.3c-5-6.6-13.2-1.4-17.7,2.8
			C481.6,249.2,483.9,251.4,485.4,250L485.4,250z"/>
	</g>
</g>
<g>
	<g>
		<path fill="#FFFFFF" d="M500.9,258.5c-4.1-1.9-8.7-3.3-13.1-1.4c-3.5,1.5-6.2,4.8-6.2,8.8c-0.1,10,11.5,14.8,19.4,10.3
			c1.8-1,0.2-3.8-1.6-2.8c-5.8,3.3-14.6,0.1-14.5-7.4c0.1-7.9,9.4-7.1,14.4-4.7C501.2,262.1,502.8,259.4,500.9,258.5L500.9,258.5z"
			/>
	</g>
</g>
</svg>
